<svg xmlns="http://www.w3.org/2000/svg" viewBox="0 0 32 40" x="0px" y="0px"><title>Movie</title><g><path d="M12,18.5A2.5,2.5,0,1,0,9.5,16,2.5,2.5,0,0,0,12,18.5Zm0-3a.5.5,0,1,1-.5.5A.5.5,0,0,1,12,15.5Z"/><path d="M12,12.5A2.5,2.5,0,1,0,9.5,10,2.5,2.5,0,0,0,12,12.5Zm0-3a.5.5,0,1,1-.5.5A.5.5,0,0,1,12,9.5Z"/><path d="M17.65,16.6a2.5,2.5,0,1,0-2.5-2.5A2.5,2.5,0,0,0,17.65,16.6Zm0-3a.5.5,0,0,1,.5.5.5.5,0,0,1-.5.5.5.5,0,0,1-.5-.5A.51.51,0,0,1,17.65,13.6Z"/><path d="M15.5,18.26a2.5,2.5,0,1,0,2.5,2.5A2.5,2.5,0,0,0,15.5,18.26Zm0,3a.5.5,0,0,1-.5-.5.5.5,0,0,1,1,0A.5.5,0,0,1,15.5,21.26Z"/><path d="M8.5,18.26a2.5,2.5,0,1,0,2.5,2.5A2.5,2.5,0,0,0,8.5,18.26Zm0,3a.5.5,0,0,1-.5-.5.5.5,0,0,1,1,0A.5.5,0,0,1,8.5,21.26Z"/><path d="M8.85,14.1a2.5,2.5,0,1,0-2.5,2.5A2.51,2.51,0,0,0,8.85,14.1Zm-3,0a.5.5,0,0,1,.5-.5.51.51,0,0,1,.5.5.5.5,0,0,1-.5.5A.5.5,0,0,1,5.85,14.1Z"/><path d="M30.89,25.55l-2-4A1,1,0,0,0,28,21H21.79A11,11,0,1,0,12,27H30a1,1,0,0,0,.89-1.45ZM3,16a9,9,0,1,1,16.16,5.43,8.83,8.83,0,0,1-.62.73l-.06.07A9,9,0,0,1,17,23.49c-.11.08-.23.14-.34.21a4.25,4.25,0,0,1-.46.27l-.43.21c-.14.06-.29.13-.44.18a4.7,4.7,0,0,1-.45.17l-.48.14-.43.11c-.2,0-.39.08-.59.11l-.36.05A8.22,8.22,0,0,1,12,25,9,9,0,0,1,3,16Zm15.54,8.82a8.94,8.94,0,0,0,.76-.62l.25-.22a10.77,10.77,0,0,0,.93-1h1.83l1,2h-5A1.92,1.92,0,0,0,18.54,24.82Zm7,.18-1-2h2.84l1,2Z"/></g><text x="0" y="47" fill="#000000" font-size="5px" font-weight="bold" font-family="'Helvetica Neue', Helvetica, Arial-Unicode, Arial, Sans-serif">Created by Yogi Aprelliyanto</text><text x="0" y="52" fill="#000000" font-size="5px" font-weight="bold" font-family="'Helvetica Neue', Helvetica, Arial-Unicode, Arial, Sans-serif">from the Noun Project</text></svg>